<svg width="26" height="26" viewBox="0 0 26 26" fill="none" xmlns="http://www.w3.org/2000/svg">
<g clip-path="url(#clip0)">
<path d="M13 0L15.7121 1.404L18.7314 1.86225L20.0996 4.59225L22.2723 6.73725L21.775 9.75L22.2723 12.7628L20.0996 14.9077L18.7314 17.6378L15.7121 18.096L13 19.5L10.2879 18.096L7.26863 17.6378L5.90038 14.9077L3.72775 12.7628L4.225 9.75L3.72775 6.73725L5.90038 4.59225L7.26863 1.86225L10.2879 1.404L13 0Z" fill="black"/>
<path d="M6.5 19.1653V26L13 24.375L19.5 26V19.1653L16.2208 19.6625L13 21.3298L9.77925 19.6625L6.5 19.1653Z" fill="black"/>
<path d="M10.1259 7.12588C10.1657 7.08598 10.213 7.05432 10.265 7.03272C10.3171 7.01112 10.3729 7 10.4292 7C10.4856 7 10.5414 7.01112 10.5935 7.03272C10.6455 7.05432 10.6928 7.08598 10.7326 7.12588L13.0001 9.39424L15.2676 7.12588C15.3075 7.08604 15.3548 7.05444 15.4068 7.03288C15.4589 7.01132 15.5146 7.00022 15.571 7.00022C15.6273 7.00022 15.6831 7.01132 15.7352 7.03288C15.7872 7.05444 15.8345 7.08604 15.8743 7.12588C15.9142 7.16572 15.9458 7.21301 15.9673 7.26507C15.9889 7.31712 16 7.3729 16 7.42924C16 7.48558 15.9889 7.54137 15.9673 7.59342C15.9458 7.64547 15.9142 7.69277 15.8743 7.73261L13.606 10.0001L15.8743 12.2676C15.9142 12.3075 15.9458 12.3548 15.9673 12.4068C15.9889 12.4589 16 12.5146 16 12.571C16 12.6273 15.9889 12.6831 15.9673 12.7352C15.9458 12.7872 15.9142 12.8345 15.8743 12.8743C15.8345 12.9142 15.7872 12.9458 15.7352 12.9673C15.6831 12.9889 15.6273 13 15.571 13C15.5146 13 15.4589 12.9889 15.4068 12.9673C15.3548 12.9458 15.3075 12.9142 15.2676 12.8743L13.0001 10.606L10.7326 12.8743C10.6928 12.9142 10.6455 12.9458 10.5934 12.9673C10.5414 12.9889 10.4856 13 10.4292 13C10.3729 13 10.3171 12.9889 10.2651 12.9673C10.213 12.9458 10.1657 12.9142 10.1259 12.8743C10.086 12.8345 10.0544 12.7872 10.0329 12.7352C10.0113 12.6831 10.0002 12.6273 10.0002 12.571C10.0002 12.5146 10.0113 12.4589 10.0329 12.4068C10.0544 12.3548 10.086 12.3075 10.1259 12.2676L12.3942 10.0001L10.1259 7.73261C10.086 7.6928 10.0543 7.64552 10.0327 7.59347C10.0111 7.54141 10 7.4856 10 7.42924C10 7.37288 10.0111 7.31708 10.0327 7.26502C10.0543 7.21297 10.086 7.16568 10.1259 7.12588Z" fill="white"/>
</g>
<defs>
<clipPath id="clip0">
<rect width="26" height="26" fill="white"/>
</clipPath>
</defs>
</svg>
